<?xml version="1.0" standalone="no"?>
<!DOCTYPE svg PUBLIC "-//W3C//DTD SVG 20010904//EN"
 "http://www.w3.org/TR/2001/REC-SVG-20010904/DTD/svg10.dtd">
<svg version="1.0" xmlns="http://www.w3.org/2000/svg"
 width="700.000000pt" height="700.000000pt" viewBox="0 0 700.000000 700.000000"
 preserveAspectRatio="xMidYMid meet">
<metadata>
Created by potrace 1.15, written by Peter Selinger 2001-2017
</metadata>
<g transform="translate(0.000000,700.000000) scale(0.100000,-0.100000)"
fill="#000000" stroke="none">
<path d="M3409 6644 c-206 -176 -339 -443 -356 -716 -3 -54 -6 -98 -7 -98 -1
0 -41 20 -90 45 -114 57 -212 80 -346 80 -93 0 -109 -3 -137 -23 -46 -33 -57
-76 -50 -206 9 -189 75 -348 199 -482 71 -75 194 -164 255 -185 l33 -11 -48
-56 c-104 -121 -158 -225 -194 -370 -40 -163 -26 -363 63 -937 85 -548 341
-1978 375 -2095 23 -82 72 -167 118 -206 67 -57 152 -77 304 -72 155 5 209 25
276 99 65 72 90 149 136 406 23 126 77 426 121 668 163 900 265 1537 289 1817
25 281 -38 487 -212 690 l-48 56 33 11 c61 21 184 110 255 185 124 134 190
293 199 482 7 130 -4 173 -50 206 -29 21 -43 23 -147 23 -130 -1 -227 -23
-332 -76 -33 -17 -61 -29 -62 -27 -2 2 -8 50 -14 108 -28 250 -118 442 -291
623 -87 91 -113 107 -174 107 -37 0 -51 -7 -98 -46z m156 -311 c56 -72 108
-177 137 -279 28 -101 31 -283 5 -388 -23 -90 -83 -215 -141 -295 l-47 -63
-25 23 c-38 35 -103 142 -135 219 -45 112 -63 217 -56 340 7 124 25 196 76
305 37 78 116 195 133 195 4 0 28 -26 53 -57z m-790 -653 c179 -61 309 -210
350 -399 l7 -34 -43 7 c-73 11 -198 78 -262 142 -78 77 -123 161 -151 277 -6
24 -3 27 17 27 13 0 50 -9 82 -20z m1549 -7 c-40 -171 -140 -300 -289 -373
-44 -22 -100 -43 -124 -46 l-43 -7 7 34 c29 135 110 259 219 334 59 40 165 84
209 84 25 1 27 -1 21 -26z m-631 -681 c220 -76 374 -263 407 -494 18 -124 -18
-415 -145 -1163 -88 -522 -290 -1644 -305 -1697 -17 -61 -49 -78 -147 -78 -46
0 -93 5 -105 11 -11 6 -28 29 -38 52 -15 34 -150 724 -150 765 0 7 56 11 163
14 181 3 207 12 233 75 18 42 18 67 -2 109 -28 58 -50 64 -259 64 -102 0 -185
1 -185 3 0 2 -11 66 -25 143 -14 76 -25 142 -25 147 0 4 93 7 208 7 188 0 210
2 239 20 63 38 80 112 40 171 -38 56 -49 59 -302 59 l-231 0 -23 138 c-12 75
-25 145 -27 154 -5 16 16 17 266 20 l272 3 29 32 c16 18 32 45 35 60 11 41
-16 104 -55 130 -33 23 -39 23 -311 23 l-277 0 -17 108 c-39 253 -58 435 -59
542 0 99 3 126 26 193 113 329 450 500 770 389z"/>
<path d="M1400 827 c0 -20 -4 -23 -35 -19 -46 5 -65 -12 -65 -59 0 -52 20 -69
81 -68 l49 2 0 83 c0 68 -3 84 -15 84 -9 0 -15 -9 -15 -23z"/>
<path d="M1530 766 l0 -83 49 -2 c60 -1 81 16 81 64 0 45 -24 68 -67 63 -29
-4 -33 -1 -33 19 0 14 -6 23 -15 23 -12 0 -15 -16 -15 -84z"/>
<path d="M2190 766 l0 -83 49 -2 c60 -1 81 16 81 64 0 45 -24 68 -67 63 -29
-4 -33 -1 -33 19 0 14 -6 23 -15 23 -12 0 -15 -16 -15 -84z"/>
<path d="M1800 505 c0 -69 3 -85 15 -85 10 0 15 11 15 35 0 34 1 35 39 35 43
0 71 20 71 50 0 34 -28 50 -86 50 l-54 0 0 -85z"/>
</g>
</svg>
